<?xml version="1.0" encoding="iso-8859-1"?>
<!-- Generator: Adobe Illustrator 19.0.0, SVG Export Plug-In . SVG Version: 6.00 Build 0)  -->
<svg version="1.1" id="Capa_1" xmlns="http://www.w3.org/2000/svg" xmlns:xlink="http://www.w3.org/1999/xlink" x="0px" y="0px"
	 viewBox="0 0 512 512" style="enable-background:new 0 0 512 512;" xml:space="preserve">
<path style="fill:#9AD14B;" d="M342.854,238.782c-5.589-5.586-12.65-9.397-20.247-11.574c-24.062-6.896-29.09-29.018-29.09-29.018
	c-11.662-46.65,1.166-96.797,1.166-96.797h9.581c5.648,0,10.488-4.037,11.501-9.593l4.392-24.076
	c1.31-7.179-4.204-13.789-11.501-13.789h-26.321h-0.48c-3.574,0-25.854,0-25.854,0s-22.279,0-25.854,0h-0.48h-26.321
	c-7.297,0-12.811,6.611-11.501,13.789l4.392,24.076c1.014,5.556,5.854,9.593,11.501,9.593h9.581c0,0,12.829,50.149,1.166,96.797
	c0,0-5.125,22.551-29.79,29.213c-5.948,1.607-11.572,4.294-16.243,8.312c-14.788,12.721-37.546,45.246-22.776,119.917
	l19.826,103.398l8.562,38.886c1.811,8.224,9.098,14.081,17.519,14.081h60.418h60.418c8.421,0,15.708-5.857,17.519-14.081
	l8.562-38.886l19.826-103.398C376.032,286.341,357.424,253.343,342.854,238.782z"/>
<path style="fill:#90BC42;" d="M250.887,197.57c-0.255,2.261-0.614,4.52-1.115,6.776c-2.264,10.203-7.14,20.087-15.122,26.834
	c-6.434,5.438-14.481,8.559-21.48,13.246c-17.194,11.513-27.059,31.789-29.107,52.018c-2.044,20.192-0.454,40.526,2.034,60.603
	c4.221,34.061,9.132,67.307,15.598,101.025c0.061,0.32,0.123,0.641,0.184,0.961L213.545,512h-17.961
	c-8.421,0-15.708-5.857-17.519-14.08l-8.564-38.888l-19.827-103.401c-13.778-69.642,5.101-102.628,19.703-117.075
	c5.534-5.472,12.5-9.202,19.992-11.336c24.083-6.894,29.112-29.029,29.112-29.029c11.665-46.651-1.165-96.795-1.165-96.795h-9.574
	c-5.647,0-10.491-4.04-11.511-9.594l-4.39-24.083c-1.309-7.172,4.205-13.788,11.501-13.788c7.854,0,15.706-0.224,23.56-0.283
	c4.199-0.031,8.398-0.024,12.597,0.094c5.421,0.151,7.115-1.307,7.714,4.823c0.525,5.379,1.009,10.762,1.444,16.149
	c0.846,10.491,1.516,20.996,2.008,31.509c0.998,21.311,1.267,42.656,0.806,63.985C251.273,179.369,251.913,188.488,250.887,197.57z"
	/>
<path style="fill:#576666;" d="M223.372,287.337l-13.819,10.969c-2.394,1.9-2.617,5.454-0.48,7.639l19.717,20.153
	c1.952,1.996,1.96,5.183,0.018,7.189l-23.11,23.856c-2.549,2.632-1.615,7.008,1.787,8.369l15.539,6.216
	c1.882,0.753,4.031,0.332,5.49-1.075l22.533-21.728c2.13-2.054,5.55-1.896,7.481,0.347l25.163,29.221
	c1.803,2.094,4.936,2.393,7.103,0.678l16.821-13.317c2.229-1.765,2.608-5.001,0.846-7.233l-25.206-31.928
	c-1.478-1.872-1.478-4.514,0-6.385l24.471-30.997c2.024-2.564,1.182-6.34-1.74-7.801l-25.446-12.723
	c-2.264-1.132-5.014-0.452-6.49,1.604l-22.579,31.449c-1.912,2.663-5.793,2.887-7.998,0.461l-13.085-14.393
	C228.564,285.9,225.496,285.651,223.372,287.337z"/>
<path style="fill:#3A4747;" d="M228.177,357.146c-2.556,2.628-1.618,7.007,1.783,8.368l2.752,1.103l-4.194,4.04
	c-1.464,1.402-3.607,1.824-5.493,1.072l-15.54-6.214c-3.401-1.36-4.338-5.74-1.783-8.368l23.104-23.857
	c1.948-2.009,1.937-5.194-0.01-7.193l-19.724-20.157c-2.133-2.174-1.917-5.73,0.484-7.636l13.819-10.965
	c2.123-1.69,5.194-1.443,7.018,0.567l6.173,6.801l-4.534,3.596c-2.391,1.907-2.618,5.462-0.484,7.636l19.724,20.157
	c1.948,1.999,1.958,5.184,0.01,7.193L228.177,357.146z"/>
<path style="fill:#93511B;" d="M288.376,53.418h-64.75V11.724C223.626,5.249,228.875,0,235.35,0h41.303
	c6.475,0,11.724,5.249,11.724,11.724v41.694H288.376z"/>
<path style="fill:#774615;" d="M258.619,0.004c-6.472,0-11.717,5.245-11.717,11.717v41.694h-23.279V11.721
	c0-6.472,5.255-11.717,11.727-11.717C235.35,0.004,258.619,0.004,258.619,0.004z"/>
<g>
</g>
<g>
</g>
<g>
</g>
<g>
</g>
<g>
</g>
<g>
</g>
<g>
</g>
<g>
</g>
<g>
</g>
<g>
</g>
<g>
</g>
<g>
</g>
<g>
</g>
<g>
</g>
<g>
</g>
</svg>
